<svg width="22" height="16" viewBox="0 0 22 16" fill="none" xmlns="http://www.w3.org/2000/svg">
<path d="M3 13.0002C3 13.5307 3.21071 14.0394 3.58579 14.4145C3.96086 14.7895 4.46957 15.0002 5 15.0002C5.53043 15.0002 6.03914 14.7895 6.41421 14.4145C6.78929 14.0394 7 13.5307 7 13.0002C7 12.4698 6.78929 11.9611 6.41421 11.586C6.03914 11.211 5.53043 11.0002 5 11.0002C4.46957 11.0002 3.96086 11.211 3.58579 11.586C3.21071 11.9611 3 12.4698 3 13.0002ZM15 13.0002C15 13.5307 15.2107 14.0394 15.5858 14.4145C15.9609 14.7895 16.4696 15.0002 17 15.0002C17.5304 15.0002 18.0391 14.7895 18.4142 14.4145C18.7893 14.0394 19 13.5307 19 13.0002C19 12.4698 18.7893 11.9611 18.4142 11.586C18.0391 11.211 17.5304 11.0002 17 11.0002C16.4696 11.0002 15.9609 11.211 15.5858 11.586C15.2107 11.9611 15 12.4698 15 13.0002Z" stroke="black" stroke-width="2" stroke-linecap="round" stroke-linejoin="round"/>
<path d="M3 13.0002H1V2.00024C1 1.73503 1.10536 1.48067 1.29289 1.29314C1.48043 1.1056 1.73478 1.00024 2 1.00024H16C17.3261 1.00024 18.5979 1.73774 19.5355 3.0505C20.4732 4.36325 21 6.14373 21 8.00024V13.0002H19M15 13.0002H7" stroke="black" stroke-width="2" stroke-linecap="round" stroke-linejoin="round"/>
<path d="M15 1.00024L16.5 8.00024H21M1 6.00024H16M6 1.00024V6.00024M11 1.00024V6.00024" stroke="black" stroke-width="2" stroke-linecap="round" stroke-linejoin="round"/>
</svg>
