<svg width="12" height="12" viewBox="0 0 12 12" fill="none" xmlns="http://www.w3.org/2000/svg">
<path fill-rule="evenodd" clip-rule="evenodd" d="M11.2526 10.4705C11.4013 10.4707 11.5443 10.5276 11.6524 10.6296C11.7605 10.7317 11.8255 10.8712 11.8343 11.0196C11.843 11.1681 11.7947 11.3142 11.6993 11.4282C11.6038 11.5422 11.4685 11.6155 11.3208 11.6331L11.2526 11.6372H0.752574C0.603894 11.637 0.460889 11.5801 0.352776 11.478C0.244663 11.3759 0.179604 11.2364 0.17089 11.088C0.162177 10.9396 0.210468 10.7934 0.305895 10.6794C0.401323 10.5654 0.536685 10.4921 0.684324 10.4746L0.752574 10.4705H11.2526ZM3.72932 0.673405C3.71617 0.582381 3.72452 0.489543 3.75368 0.402321C3.78285 0.3151 3.83203 0.235917 3.89729 0.171113C3.96255 0.106308 4.04207 0.0576807 4.12949 0.0291231C4.21692 0.000565561 4.30981 -0.00712912 4.40074 0.00665502L4.46491 0.020655L6.07491 0.451738C6.27674 0.505988 6.44474 0.644238 6.53749 0.828572L6.56841 0.900322L8.20757 5.2759L10.3455 6.04415C10.7186 6.17817 11.051 6.40596 11.3106 6.7056C11.5702 7.00525 11.7483 7.36666 11.8277 7.75507C11.9082 8.14824 11.8079 8.55015 11.4987 8.8214C11.2643 9.02776 10.9852 9.17706 10.6835 9.25762C10.3817 9.33817 10.0654 9.3478 9.75924 9.28574L9.63674 9.25657L0.841824 6.8999C0.729592 6.86991 0.627609 6.81 0.546757 6.72658C0.465905 6.64316 0.409217 6.53935 0.382741 6.42624L0.371074 6.35624L0.00415749 3.28499C-0.00657859 3.19509 0.00354623 3.10394 0.033746 3.01859C0.0639458 2.93324 0.113408 2.856 0.178293 2.79286C0.243178 2.72973 0.32174 2.68239 0.407881 2.65454C0.494022 2.62668 0.585424 2.61905 0.674991 2.63224L0.742074 2.64624L2.06624 3.00149C2.27624 3.05749 2.44832 3.20332 2.53874 3.39699L2.56849 3.47224L2.76682 4.0579L4.24966 4.28365L3.72932 0.673405ZM5.00916 1.37399L5.51549 4.88799C5.52775 4.9733 5.52113 5.06026 5.49613 5.14273C5.47112 5.22521 5.42832 5.30119 5.37074 5.36533C5.31317 5.42946 5.24223 5.48019 5.16292 5.51392C5.08362 5.54766 4.99787 5.56358 4.91174 5.56057L4.84349 5.55474L2.24416 5.15807C2.14951 5.14373 2.05978 5.10654 1.98274 5.04972C1.90569 4.99291 1.84366 4.91817 1.80199 4.83199L1.77457 4.7649L1.53891 4.06782L1.26357 3.99374L1.48699 5.86565L9.93832 8.13015C10.1973 8.19957 10.4727 8.14415 10.6832 7.98257C10.6462 7.80678 10.5683 7.64217 10.4558 7.50211C10.3433 7.36204 10.1994 7.25046 10.0357 7.1764L9.95116 7.14199L7.56182 6.28332C7.42276 6.23413 7.3075 6.13408 7.23924 6.00332L7.20949 5.93565L5.55516 1.51982L5.00916 1.37399Z" fill="black"/>
</svg>
