<svg width="13" height="9" viewBox="0 0 13 9" fill="none" xmlns="http://www.w3.org/2000/svg">
<path fill-rule="evenodd" clip-rule="evenodd" d="M11.6667 7.58333C11.8214 7.58333 11.9698 7.64479 12.0791 7.75419C12.1885 7.86358 12.25 8.01196 12.25 8.16667C12.25 8.32138 12.1885 8.46975 12.0791 8.57915C11.9698 8.68854 11.8214 8.75 11.6667 8.75H0.583337C0.428627 8.75 0.280254 8.68854 0.170858 8.57915C0.0614618 8.46975 3.65566e-06 8.32138 3.65566e-06 8.16667C3.65566e-06 8.01196 0.0614618 7.86358 0.170858 7.75419C0.280254 7.64479 0.428627 7.58333 0.583337 7.58333H11.6667ZM6.41667 0C8.29734 0 9.88284 0.627083 11.0063 1.51025C12.1094 2.37708 12.8333 3.54958 12.8333 4.66667C12.8333 5.15783 12.6828 5.57667 12.4174 5.915C12.159 6.24517 11.8143 6.46917 11.4631 6.62317C10.7713 6.92533 9.94817 7 9.33334 7H1.16317C1.01015 6.99992 0.858643 6.96967 0.717327 6.91097C0.576011 6.85227 0.44766 6.76627 0.339619 6.65791C0.231579 6.54954 0.14597 6.42093 0.0876947 6.27944C0.029419 6.13795 -0.000379878 5.98636 3.65566e-06 5.83333V1.16667C3.65566e-06 0.524417 0.51917 0 1.1655 0H6.41667ZM11.5599 4.08333H1.16667V5.83333H9.33334C9.88517 5.83333 10.5204 5.76217 10.9958 5.55392C11.2274 5.45242 11.3931 5.3305 11.4993 5.19517C11.5984 5.06917 11.6667 4.90467 11.6667 4.66667C11.6667 4.48817 11.6317 4.291 11.5599 4.08333ZM3.5 1.16667H1.16667V2.91667H3.5V1.16667ZM6.41667 1.16667H4.66667V2.91667H7V1.19C6.80945 1.17444 6.615 1.16667 6.41667 1.16667ZM8.16667 1.39008V2.91667H10.8214C10.6557 2.73986 10.4765 2.57622 10.2853 2.42725C9.72417 1.98625 9.00784 1.6135 8.16667 1.39008Z" fill="black"/>
</svg>
